<svg xmlns="http://www.w3.org/2000/svg" viewBox="0 0 100 100" preserveAspectRatio="xMidYMid meet">
  <defs>
    <linearGradient id="bg" x1="0" y1="0" x2="1" y2="1">
      <stop offset="0" stop-color="#eef2f7"/>
      <stop offset="1" stop-color="#e2e8f0"/>
    </linearGradient>
    <filter id="soft" x="-20%" y="-20%" width="140%" height="140%">
      <feDropShadow dx="0" dy="0.8" stdDeviation="0.6" flood-color="#1e3a5f" flood-opacity="0.12"/>
    </filter>
  </defs>
  <rect width="100" height="100" fill="url(#bg)"/>
  <g opacity="0.45" stroke="#c5d0dc" stroke-width="0.06" fill="none">
    <path d="M10 0 V100 M20 0 V100 M30 0 V100 M40 0 V100 M50 0 V100 M60 0 V100 M70 0 V100 M80 0 V100 M90 0 V100"/>
    <path d="M0 10 H100 M0 20 H100 M0 30 H100 M0 40 H100 M0 50 H100 M0 60 H100 M0 70 H100 M0 80 H100 M0 90 H100"/>
  </g>
  <rect x="5" y="5" width="90" height="90" rx="0.6" fill="#f8fafc" stroke="#1e3a5f" stroke-width="1" filter="url(#soft)"/>
  <rect x="8" y="41" width="84" height="11" fill="#dbe4ee" stroke="#1e3a5f" stroke-width="0.45"/>
  <text x="50" y="48.2" text-anchor="middle" font-size="3.4" fill="#5c6b7a" font-family="system-ui, sans-serif">???????</text>
  <rect x="8" y="8" width="26" height="31" fill="#d2e0f0" stroke="#1e3a5f" stroke-width="0.55"/>
  <rect x="36" y="8" width="28" height="31" fill="#e8edf4" stroke="#1e3a5f" stroke-width="0.55"/>
  <text x="50" y="22" text-anchor="middle" font-size="3" fill="#7d8c9c" font-family="system-ui, sans-serif">???????? Ę ????</text>
  <rect x="66" y="8" width="26" height="31" fill="#d2e0f0" stroke="#1e3a5f" stroke-width="0.55"/>
  <rect x="8" y="54" width="30" height="38" fill="#d2e0f0" stroke="#1e3a5f" stroke-width="0.55"/>
  <rect x="40" y="54" width="22" height="38" fill="#d2e0f0" stroke="#1e3a5f" stroke-width="0.55"/>
  <rect x="64" y="54" width="28" height="38" fill="#e8edf4" stroke="#1e3a5f" stroke-width="0.55"/>
  <text x="78" y="74" text-anchor="middle" font-size="3" fill="#7d8c9c" font-family="system-ui, sans-serif">?????</text>
  <line x1="36" y1="8" x2="36" y2="39" stroke="#1e3a5f" stroke-width="0.45"/>
  <line x1="64" y1="8" x2="64" y2="39" stroke="#1e3a5f" stroke-width="0.45"/>
  <line x1="40" y1="54" x2="40" y2="92" stroke="#1e3a5f" stroke-width="0.45"/>
  <line x1="64" y1="54" x2="64" y2="92" stroke="#1e3a5f" stroke-width="0.45"/>
  <line x1="8" y1="54" x2="92" y2="54" stroke="#1e3a5f" stroke-width="0.45"/>
  <line x1="8" y1="39" x2="92" y2="39" stroke="#1e3a5f" stroke-width="0.45"/>
  <text x="50" y="97.5" text-anchor="middle" font-size="2.8" fill="#8a9aaa" font-family="system-ui, sans-serif">??????????? ???? Ę ?? ???????</text>
</svg>
